<svg xmlns="http://www.w3.org/2000/svg" width="159.624" height="91.28" viewBox="0 0 159.624 91.28">
  <g id="Moroccanlogo" transform="translate(0 0.001)">
    <g id="グループ_4" data-name="グループ 4" transform="translate(0 -0.001)">
      <path id="パス_16" data-name="パス 16" d="M25.671,13.694a8.168,8.168,0,0,0-1.83-.277c-1.442,0-3.881,1.164-6.1,3.327a30.985,30.985,0,0,1,1.22,9.038c0,5.434-2.384,8.594-4.824,8.594-1.5,0-2.551-1.442-2.551-3.992a19.591,19.591,0,0,1,3.937-12.254c-1.386-5.545-3.937-8.76-6.654-8.76C5.489,9.369,2,13.8,2,21.4c0,7.818,3.05,19.018,10.757,19.018,7.873,0,19.406-20.57,25.505-31.715,0-4.546,2.051-8.7,4.38-8.7A1.406,1.406,0,0,1,43.8,1.552c0,1.941-3.105,3.438-3.105,7.707s.111,8.095.111,16.356v.554c1.5-1.275,3.05-2.661,4.6-4.158,1.331-1.275,2.661-2.606,3.937-3.936C52.119,8.981,57,.831,60.6.831a1.413,1.413,0,0,1,1.442,1.331c0,2.717-3.493,7.374-8.15,12.475a65.26,65.26,0,0,0-3.438,19.627c0,1.386.554,2,1.22,2,1.941,0,2.772-2.661,2.994-2.661a.528.528,0,0,1,.443.443c0,.665-2.107,3.382-4.1,3.382-1.774,0-3.826-1.663-3.826-6.321a43.912,43.912,0,0,1,1.663-11.255c-1.22,1.275-2.55,2.495-3.77,3.715-1.5,1.442-2.994,2.772-4.38,4.047-.554,5.711-3.6,12.087-7.43,12.087a2.092,2.092,0,0,1-2.051-2.107c0-2.883,2.828-5.655,6.543-8.871v-.166c0-2.329-.055-10.978.222-15.968C31.327,24.616,21.292,41.638,11.755,41.638,4.269,41.639,0,31.936,0,23.009,0,12.918,5.157,8.261,9.038,8.261c4.158,0,6.931,3.16,8.483,7.707,2.5-2.273,5.323-3.438,7.319-3.438,1.22,0,1.83.222,1.83.443S25.893,13.694,25.671,13.694Zm-9.925,5.378A17.8,17.8,0,0,0,12.475,29.5c0,2.883.832,3.881,1.774,3.881,1.553,0,2.328-2.44,2.328-5.932a41.5,41.5,0,0,0-.832-8.372Zm21.9,11.2c-3.105,2.828-5.212,5.045-5.212,6.986a1.023,1.023,0,0,0,1,1.109C35.042,38.367,37.148,34.32,37.647,30.272ZM54.669,12.419C58.384,8.15,60.99,4.435,60.99,2.272a.379.379,0,0,0-.388-.388c-1.054,0-3.659,4.325-5.932,10.535Z" transform="translate(0 0.001)" fill="#fff"/>
      <path id="パス_17" data-name="パス 17" d="M171.13,60.044a.239.239,0,0,1,.222.222c0,.166-.055.277-.388.554-1.553,1.386-4.935,3.161-7.374,3.161H163.2c-1.5,1.663-3.271,2.883-4.713,2.883a3.233,3.233,0,0,1-3.382-3.1c0-4.047,5.489-10.2,9.814-10.2a2.116,2.116,0,0,1,2.273,2.107c0,2.051-1.275,4.824-2.994,7.152a1.392,1.392,0,0,0,.554.111c2.218,0,3.992-1.109,5.711-2.495.388-.277.5-.388.665-.388Zm-13.639,3.992c0,.887.5,1.719,1.331,1.719A5.837,5.837,0,0,0,162.2,63.7c-.333-.166-.61-.388-.61-.61a2.269,2.269,0,0,1,1.386-1.275.845.845,0,0,1,.554.332,11.282,11.282,0,0,0,2.384-6.376c0-1.109-.388-1.553-.943-1.553-2.661,0-7.485,6.432-7.485,9.814Z" transform="translate(-100.992 -34.871)" fill="#fff"/>
      <path id="パス_18" data-name="パス 18" d="M213.323,51.248a.239.239,0,0,1,.222.222c0,.166-.055.277-.388.554-4.047,3.271-6.986,5.711-9.7,5.711-1.386,0-3.05-.5-3.05-2.495,0-2.994,4.824-5.489,4.824-6.154,0-.277-.72-.721-1.442-1.442a45.41,45.41,0,0,1-5.156,4.491c-.277.222-.388.277-.5.277a.262.262,0,0,1-.277-.277c0-.111.111-.222.443-.5a49.891,49.891,0,0,0,5.157-4.38,4.19,4.19,0,0,1-1.22-2.883c0-2.273,2.772-4.325,4.214-4.325a1.42,1.42,0,0,1,1.22,1.5c0,1.386-1.109,3.049-2.717,4.879.5,1.386,1.442,1.941,1.442,2.606,0,1.5-3.493,3.937-3.493,6.709a1.126,1.126,0,0,0,1.275,1.22c1.83,0,4.824-2.44,8.483-5.323C213.046,51.359,213.157,51.248,213.323,51.248ZM204.84,45.7a7.009,7.009,0,0,0,2-3.881c0-.554-.167-.887-.721-.887-.61,0-1.386.943-1.386,3.659A6.242,6.242,0,0,0,204.84,45.7Z" transform="translate(-128.825 -26.075)" fill="#fff"/>
      <path id="パス_19" data-name="パス 19" d="M253.447,60.044a.239.239,0,0,1,.222.222c0,.166-.055.277-.388.554-1.553,1.386-4.935,3.161-7.374,3.161h-.388c-1.5,1.663-3.271,2.883-4.713,2.883a3.232,3.232,0,0,1-3.382-3.1c0-4.047,5.489-10.2,9.814-10.2a2.116,2.116,0,0,1,2.273,2.107c0,2.051-1.275,4.824-2.994,7.152a1.392,1.392,0,0,0,.555.111c2.217,0,3.992-1.109,5.711-2.495.388-.277.5-.388.665-.388Zm-13.64,3.992c0,.887.5,1.719,1.331,1.719A5.838,5.838,0,0,0,244.52,63.7c-.333-.166-.61-.388-.61-.61a2.268,2.268,0,0,1,1.386-1.275.845.845,0,0,1,.554.332,11.282,11.282,0,0,0,2.384-6.376c0-1.109-.388-1.553-.942-1.553-2.662,0-7.485,6.432-7.485,9.814Z" transform="translate(-154.59 -34.871)" fill="#fff"/>
      <path id="パス_20" data-name="パス 20" d="M291.707,60.328c.388-.277.5-.388.665-.388a.239.239,0,0,1,.222.222c0,.166-.055.277-.388.554-3.659,2.828-9.2,5.046-10.923,5.046a2.361,2.361,0,0,1-2.384-2.495c0-4.547,6.265-9.869,8.76-9.869a1.459,1.459,0,0,1,1.442,1.164c0,.943-.832,2.329-1.33,2.329a.585.585,0,0,1-.5-.5c0-.388,1.22-.832,1.22-1.774a.552.552,0,0,0-.554-.554c-2.329,0-6.6,6.1-6.6,9.426,0,.776.277,1.275,1,1.275a24.394,24.394,0,0,0,9.37-4.435Z" transform="translate(-181.595 -34.767)" fill="#fff"/>
      <path id="パス_21" data-name="パス 21" d="M325.874,60.328c.388-.277.5-.388.665-.388a.239.239,0,0,1,.222.222c0,.166-.056.277-.388.554-3.66,2.828-9.2,5.046-10.923,5.046a2.361,2.361,0,0,1-2.384-2.495c0-4.547,6.265-9.869,8.76-9.869a1.459,1.459,0,0,1,1.442,1.164c0,.943-.832,2.329-1.33,2.329a.585.585,0,0,1-.5-.5c0-.388,1.22-.832,1.22-1.774a.552.552,0,0,0-.554-.554c-2.329,0-6.6,6.1-6.6,9.426,0,.776.277,1.275,1,1.275a24.394,24.394,0,0,0,9.37-4.435Z" transform="translate(-203.841 -34.767)" fill="#fff"/>
      <path id="パス_22" data-name="パス 22" d="M363.039,60.845c.388-.277.5-.388.665-.388a.239.239,0,0,1,.222.222c0,.166-.055.277-.388.554-4.048,3.271-5.711,3.715-7.263,3.715-2.939,0-2.606-3.327-3.438-3.327s-4.436,4.99-7.54,4.99c-.832,0-1.719-.665-1.719-1.386,0-4.491,7.153-11.034,11.2-11.034a1.893,1.893,0,0,1,1.719,1.941c0,.554-.776,1.885-1.164,1.885a.476.476,0,0,1-.388-.443c0-.388.942-.721.942-1.719a.956.956,0,0,0-1.054-.832c-2.606,0-8.927,6.321-8.927,9.925a.541.541,0,0,0,.555.61c1.109,0,3.77-2.551,5.323-4.214,1.442-1.553,1.83-2.218,2.661-2.218,1.885,0,1.22,4.658,3.438,4.658.887,0,1.5-.055,5.156-2.939Z" transform="translate(-223.708 -35.284)" fill="#fff"/>
      <path id="パス_23" data-name="パス 23" d="M408.688,51.443c.665,0,1.608.721,1.608,1.275,0,2.162-3.493,5.157-3.493,8.871,0,.61.222,1,.721,1,1.054,0,4.269-2.328,7.929-5.212.388-.277.5-.388.665-.388a.239.239,0,0,1,.222.222c0,.166-.055.277-.388.554-4.048,3.271-7.54,5.711-9.7,5.711a2.055,2.055,0,0,1-2.162-2.218c0-4.047,4.269-6.986,4.269-8.7a.238.238,0,0,0-.222-.222c-2,0-11.2,9.315-13.085,9.315-.277,0-.776-.721-.776-1.109,0-1,2.772-6.432,5.6-9.481a6.03,6.03,0,0,1,3.493-2.107c.111,0,.277.222.277.333a16.824,16.824,0,0,0-1.94,2.329,52.771,52.771,0,0,0-3.66,7.319c.887-.665,8.483-7.485,10.646-7.485Z" transform="translate(-256.715 -31.87)" fill="#fff"/>
    </g>
    <g id="グループ_5" data-name="グループ 5" transform="translate(33.027 31.3)">
      <path id="パス_24" data-name="パス 24" d="M145.582,114.888c0,1.438-2.3,2.517-3.38,3.021s-1.51.5-1.87,1.079a7.673,7.673,0,0,0-.863,3.524c0,.5-1.079,1.079-1.438,1.079-.287,0-.36-.144-.36-.431a10.392,10.392,0,0,1,2.014-4.891c-1.438.144-3.021.288-4.459.288h-.072c-6.113,11.866-13.736,24.092-21.719,24.092a11.985,11.985,0,0,1-4.459-.863c-2.8,4.963-6.688,7.911-9.781,7.911-1.151,0-1.726-.432-1.726-.719,0-.359.432-1.007.863-1.007a7.092,7.092,0,0,0,1.8.431c2.733,0,5.609-2.733,7.551-7.191-7.407-3.74-13.017-14.312-13.017-25.818,0-5.753,1.726-9.278,5.178-9.278,6.041,0,12.873,9.421,12.873,21.071a30.291,30.291,0,0,1-2.877,13.089,10.252,10.252,0,0,0,3.6.647c5.538,0,11.722-11.291,17.835-23.085-2.517-.719-5.106-1.726-6.9-1.726-3.38,0-4.675,1.87-4.675,3.74,0,.288-.072.5-.287.5-.647,0-1.151-.863-1.151-1.223,0-1.51,2.517-4.243,8.558-4.243a22.9,22.9,0,0,1,5.466.935c3.02-5.753,5.969-11.435,8.846-15.894,1.151-1.8,2.8-2.445,4.171-3.308h-.575c-7.7,0-15.678-5.609-22.582-5.609-3.093,0-6.113,1.51-6.113,5.754,0,5.178,5.61,12.873,10.5,12.873,2.8,0,3.668-2.086,3.668-4.387,0-4.387-3.524-6.76-3.524-7.264a1.16,1.16,0,0,1,.863-.935c.432,0,3.6,2.445,3.6,7.983,0,3.236-2.013,5.969-5.178,5.969-4.531,0-12.442-5.322-12.442-13.161,0-5.106,5.25-8.127,10.284-8.127,6.4,0,15.031,5.538,21.144,5.538,1.079,0,2.8-1.438,3.955-2.445a2.717,2.717,0,0,1,1.87-1.007c.935,0,1.367.432,1.367,1.151,0,.791-.144,1.582-5.322,4.027-2.086,1.007-5.825,10-10.788,19.777a17.68,17.68,0,0,0,4.243.575c1.438-1.941,3.164-3.524,4.243-3.524a1.059,1.059,0,0,1,1.079,1.079Zm-37.253,24.739a32.274,32.274,0,0,0,1.726-10.428c0-12.369-6.473-21.79-10.428-21.79-2.373,0-3.668,3.164-3.668,8.342,0,10.5,5.394,20.5,12.37,23.876Z" transform="translate(-94.665 -89.717)" fill="#fff"/>
      <path id="パス_25" data-name="パス 25" d="M253.354,173.988a.309.309,0,0,1,.287.287c0,.216-.072.36-.5.719-2.013,1.8-6.4,4.1-9.565,4.1h-.5c-1.942,2.158-4.243,3.74-6.113,3.74a4.193,4.193,0,0,1-4.387-4.027c0-5.25,7.12-13.233,12.729-13.233a2.744,2.744,0,0,1,2.948,2.732c0,2.661-1.654,6.257-3.883,9.278a1.81,1.81,0,0,0,.719.144c2.877,0,5.178-1.438,7.407-3.236.5-.359.647-.5.863-.5Zm-17.691,5.178c0,1.151.647,2.229,1.726,2.229s2.8-1.007,4.387-2.661c-.431-.216-.791-.5-.791-.791a2.942,2.942,0,0,1,1.8-1.654,1.1,1.1,0,0,1,.719.431,14.633,14.633,0,0,0,3.093-8.27c0-1.438-.5-2.013-1.223-2.013-3.452,0-9.708,8.343-9.708,12.729Z" transform="translate(-184.457 -139.108)" fill="#fff"/>
      <path id="パス_26" data-name="パス 26" d="M306.741,173.988a.309.309,0,0,1,.288.287c0,.216-.072.36-.5.719-2.013,1.8-6.4,4.1-9.565,4.1h-.5c-1.942,2.158-4.243,3.74-6.113,3.74a4.193,4.193,0,0,1-4.387-4.027c0-5.25,7.12-13.233,12.729-13.233a2.744,2.744,0,0,1,2.949,2.732c0,2.661-1.654,6.257-3.884,9.278a1.813,1.813,0,0,0,.719.144c2.877,0,5.178-1.438,7.407-3.236.5-.359.647-.5.863-.5Zm-17.691,5.178c0,1.151.647,2.229,1.726,2.229s2.8-1.007,4.387-2.661c-.432-.216-.791-.5-.791-.791a2.942,2.942,0,0,1,1.8-1.654,1.1,1.1,0,0,1,.719.431,14.633,14.633,0,0,0,3.093-8.27c0-1.438-.5-2.013-1.223-2.013-3.452,0-9.708,8.343-9.708,12.729Z" transform="translate(-219.218 -139.108)" fill="#fff"/>
      <path id="パス_27" data-name="パス 27" d="M341.251,144.367a3.147,3.147,0,0,1-2.733-3.164c0-4.531,7.551-12.514,11.866-12.514a3.232,3.232,0,0,1,2.8,1.582,26.823,26.823,0,0,1,.791-3.092c3.308-10.069,9.709-20.353,14.743-20.353a1.823,1.823,0,0,1,1.654,2.014c0,3.164-8.63,15.606-14.527,21.791a31.229,31.229,0,0,0-.5,5.825c0,2.086.791,4.531,2.086,4.531.935,0,3.02-1.007,7.767-4.746.5-.359.647-.5.863-.5a.309.309,0,0,1,.288.287c0,.216-.072.36-.5.719-5.25,4.243-8.127,5.538-9.493,5.538-2.733,0-3.6-3.452-3.6-6.976-3.668,3.668-8.127,9.062-11.507,9.062Zm11.723-12.729c-.216,0-.216.287-.647.287-.359,0-.288-.575-.288-.719,0-1.079-.432-1.367-1.294-1.367-4.1,0-9.35,8.486-9.35,12.657a.7.7,0,0,0,.719.791c2.086,0,11-9.205,11-11.291,0-.072,0-.36-.144-.36Zm3.452-2.589.216-.288Zm13.161-20.209c0-.575-.288-.863-.791-.863-3.308,0-11.65,17.979-11.65,19.849,2.013-2.086,12.441-15.965,12.441-18.986Z" transform="translate(-253.441 -100.858)" fill="#fff"/>
      <path id="パス_28" data-name="パス 28" d="M417.288,174.886c-1.151,4.171-4.243,8.2-7.7,8.2-1.8,0-3.668-1.294-3.668-2.877,0-1.942,4.1-3.236,8.63-4.89.575-2.877.863-6.185,1.151-8.918a69.677,69.677,0,0,1-5.9,5.034c-.36.287-.5.359-.647.359a.34.34,0,0,1-.359-.359c0-.144.144-.287.575-.647a61.666,61.666,0,0,0,6.473-5.466,5.576,5.576,0,0,1,.144-1.151,5.164,5.164,0,0,1,4.53-3.955c.432,0,.647.359.647.791,0,.719-2.086,3.02-3.38,4.387.072,1.726.072,4.1.072,5.9a12.5,12.5,0,0,1-.36,2.8A24.1,24.1,0,0,0,422.682,171c.5-.359.647-.5.863-.5a.309.309,0,0,1,.287.287c0,.216-.072.36-.5.719a25.747,25.747,0,0,1-6.041,3.38Zm-7.623,7.407c2.445,0,3.884-2.732,4.674-6.257-3.668,1.367-6.76,2.517-6.76,4.387a1.958,1.958,0,0,0,2.086,1.87Z" transform="translate(-297.33 -135.619)" fill="#fff"/>
    </g>
    <g id="グループ_8" data-name="グループ 8" transform="translate(0 -0.001)">
      <path id="パス_16-2" data-name="パス 16" d="M25.671,13.694a8.168,8.168,0,0,0-1.83-.277c-1.442,0-3.881,1.164-6.1,3.327a30.985,30.985,0,0,1,1.22,9.038c0,5.434-2.384,8.594-4.824,8.594-1.5,0-2.551-1.442-2.551-3.992a19.591,19.591,0,0,1,3.937-12.254c-1.386-5.545-3.937-8.76-6.654-8.76C5.489,9.369,2,13.8,2,21.4c0,7.818,3.05,19.018,10.757,19.018,7.873,0,19.406-20.57,25.505-31.715,0-4.546,2.051-8.7,4.38-8.7A1.406,1.406,0,0,1,43.8,1.552c0,1.941-3.105,3.438-3.105,7.707s.111,8.095.111,16.356v.554c1.5-1.275,3.05-2.661,4.6-4.158,1.331-1.275,2.661-2.606,3.937-3.936C52.119,8.981,57,.831,60.6.831a1.413,1.413,0,0,1,1.442,1.331c0,2.717-3.493,7.374-8.15,12.475a65.26,65.26,0,0,0-3.438,19.627c0,1.386.554,2,1.22,2,1.941,0,2.772-2.661,2.994-2.661a.528.528,0,0,1,.443.443c0,.665-2.107,3.382-4.1,3.382-1.774,0-3.826-1.663-3.826-6.321a43.912,43.912,0,0,1,1.663-11.255c-1.22,1.275-2.55,2.495-3.77,3.715-1.5,1.442-2.994,2.772-4.38,4.047-.554,5.711-3.6,12.087-7.43,12.087a2.092,2.092,0,0,1-2.051-2.107c0-2.883,2.828-5.655,6.543-8.871v-.166c0-2.329-.055-10.978.222-15.968C31.327,24.616,21.292,41.638,11.755,41.638,4.269,41.639,0,31.936,0,23.009,0,12.918,5.157,8.261,9.038,8.261c4.158,0,6.931,3.16,8.483,7.707,2.5-2.273,5.323-3.438,7.319-3.438,1.22,0,1.83.222,1.83.443S25.893,13.694,25.671,13.694Zm-9.925,5.378A17.8,17.8,0,0,0,12.475,29.5c0,2.883.832,3.881,1.774,3.881,1.553,0,2.328-2.44,2.328-5.932a41.5,41.5,0,0,0-.832-8.372Zm21.9,11.2c-3.105,2.828-5.212,5.045-5.212,6.986a1.023,1.023,0,0,0,1,1.109C35.042,38.367,37.148,34.32,37.647,30.272ZM54.669,12.419C58.384,8.15,60.99,4.435,60.99,2.272a.379.379,0,0,0-.388-.388c-1.054,0-3.659,4.325-5.932,10.535Z" transform="translate(0 0.001)" fill="#fff"/>
      <path id="パス_17-2" data-name="パス 17" d="M171.13,60.044a.239.239,0,0,1,.222.222c0,.166-.055.277-.388.554-1.553,1.386-4.935,3.161-7.374,3.161H163.2c-1.5,1.663-3.271,2.883-4.713,2.883a3.233,3.233,0,0,1-3.382-3.1c0-4.047,5.489-10.2,9.814-10.2a2.116,2.116,0,0,1,2.273,2.107c0,2.051-1.275,4.824-2.994,7.152a1.392,1.392,0,0,0,.554.111c2.218,0,3.992-1.109,5.711-2.495.388-.277.5-.388.665-.388Zm-13.639,3.992c0,.887.5,1.719,1.331,1.719A5.837,5.837,0,0,0,162.2,63.7c-.333-.166-.61-.388-.61-.61a2.269,2.269,0,0,1,1.386-1.275.845.845,0,0,1,.554.332,11.282,11.282,0,0,0,2.384-6.376c0-1.109-.388-1.553-.943-1.553-2.661,0-7.485,6.432-7.485,9.814Z" transform="translate(-100.992 -34.871)" fill="#fff"/>
      <path id="パス_18-2" data-name="パス 18" d="M213.323,51.248a.239.239,0,0,1,.222.222c0,.166-.055.277-.388.554-4.047,3.271-6.986,5.711-9.7,5.711-1.386,0-3.05-.5-3.05-2.495,0-2.994,4.824-5.489,4.824-6.154,0-.277-.72-.721-1.442-1.442a45.41,45.41,0,0,1-5.156,4.491c-.277.222-.388.277-.5.277a.262.262,0,0,1-.277-.277c0-.111.111-.222.443-.5a49.891,49.891,0,0,0,5.157-4.38,4.19,4.19,0,0,1-1.22-2.883c0-2.273,2.772-4.325,4.214-4.325a1.42,1.42,0,0,1,1.22,1.5c0,1.386-1.109,3.049-2.717,4.879.5,1.386,1.442,1.941,1.442,2.606,0,1.5-3.493,3.937-3.493,6.709a1.126,1.126,0,0,0,1.275,1.22c1.83,0,4.824-2.44,8.483-5.323C213.046,51.359,213.157,51.248,213.323,51.248ZM204.84,45.7a7.009,7.009,0,0,0,2-3.881c0-.554-.167-.887-.721-.887-.61,0-1.386.943-1.386,3.659A6.242,6.242,0,0,0,204.84,45.7Z" transform="translate(-128.825 -26.075)" fill="#fff"/>
      <path id="パス_19-2" data-name="パス 19" d="M253.447,60.044a.239.239,0,0,1,.222.222c0,.166-.055.277-.388.554-1.553,1.386-4.935,3.161-7.374,3.161h-.388c-1.5,1.663-3.271,2.883-4.713,2.883a3.232,3.232,0,0,1-3.382-3.1c0-4.047,5.489-10.2,9.814-10.2a2.116,2.116,0,0,1,2.273,2.107c0,2.051-1.275,4.824-2.994,7.152a1.392,1.392,0,0,0,.555.111c2.217,0,3.992-1.109,5.711-2.495.388-.277.5-.388.665-.388Zm-13.64,3.992c0,.887.5,1.719,1.331,1.719A5.838,5.838,0,0,0,244.52,63.7c-.333-.166-.61-.388-.61-.61a2.268,2.268,0,0,1,1.386-1.275.845.845,0,0,1,.554.332,11.282,11.282,0,0,0,2.384-6.376c0-1.109-.388-1.553-.942-1.553-2.662,0-7.485,6.432-7.485,9.814Z" transform="translate(-154.59 -34.871)" fill="#fff"/>
      <path id="パス_20-2" data-name="パス 20" d="M291.707,60.328c.388-.277.5-.388.665-.388a.239.239,0,0,1,.222.222c0,.166-.055.277-.388.554-3.659,2.828-9.2,5.046-10.923,5.046a2.361,2.361,0,0,1-2.384-2.495c0-4.547,6.265-9.869,8.76-9.869a1.459,1.459,0,0,1,1.442,1.164c0,.943-.832,2.329-1.33,2.329a.585.585,0,0,1-.5-.5c0-.388,1.22-.832,1.22-1.774a.552.552,0,0,0-.554-.554c-2.329,0-6.6,6.1-6.6,9.426,0,.776.277,1.275,1,1.275a24.394,24.394,0,0,0,9.37-4.435Z" transform="translate(-181.595 -34.767)" fill="#fff"/>
      <path id="パス_21-2" data-name="パス 21" d="M325.874,60.328c.388-.277.5-.388.665-.388a.239.239,0,0,1,.222.222c0,.166-.056.277-.388.554-3.66,2.828-9.2,5.046-10.923,5.046a2.361,2.361,0,0,1-2.384-2.495c0-4.547,6.265-9.869,8.76-9.869a1.459,1.459,0,0,1,1.442,1.164c0,.943-.832,2.329-1.33,2.329a.585.585,0,0,1-.5-.5c0-.388,1.22-.832,1.22-1.774a.552.552,0,0,0-.554-.554c-2.329,0-6.6,6.1-6.6,9.426,0,.776.277,1.275,1,1.275a24.394,24.394,0,0,0,9.37-4.435Z" transform="translate(-203.841 -34.767)" fill="#fff"/>
      <path id="パス_22-2" data-name="パス 22" d="M363.039,60.845c.388-.277.5-.388.665-.388a.239.239,0,0,1,.222.222c0,.166-.055.277-.388.554-4.048,3.271-5.711,3.715-7.263,3.715-2.939,0-2.606-3.327-3.438-3.327s-4.436,4.99-7.54,4.99c-.832,0-1.719-.665-1.719-1.386,0-4.491,7.153-11.034,11.2-11.034a1.893,1.893,0,0,1,1.719,1.941c0,.554-.776,1.885-1.164,1.885a.476.476,0,0,1-.388-.443c0-.388.942-.721.942-1.719a.956.956,0,0,0-1.054-.832c-2.606,0-8.927,6.321-8.927,9.925a.541.541,0,0,0,.555.61c1.109,0,3.77-2.551,5.323-4.214,1.442-1.553,1.83-2.218,2.661-2.218,1.885,0,1.22,4.658,3.438,4.658.887,0,1.5-.055,5.156-2.939Z" transform="translate(-223.708 -35.284)" fill="#fff"/>
      <path id="パス_23-2" data-name="パス 23" d="M408.688,51.443c.665,0,1.608.721,1.608,1.275,0,2.162-3.493,5.157-3.493,8.871,0,.61.222,1,.721,1,1.054,0,4.269-2.328,7.929-5.212.388-.277.5-.388.665-.388a.239.239,0,0,1,.222.222c0,.166-.055.277-.388.554-4.048,3.271-7.54,5.711-9.7,5.711a2.055,2.055,0,0,1-2.162-2.218c0-4.047,4.269-6.986,4.269-8.7a.238.238,0,0,0-.222-.222c-2,0-11.2,9.315-13.085,9.315-.277,0-.776-.721-.776-1.109,0-1,2.772-6.432,5.6-9.481a6.03,6.03,0,0,1,3.493-2.107c.111,0,.277.222.277.333a16.824,16.824,0,0,0-1.94,2.329,52.771,52.771,0,0,0-3.66,7.319c.887-.665,8.483-7.485,10.646-7.485Z" transform="translate(-256.715 -31.87)" fill="#fff"/>
    </g>
    <g id="グループ_9" data-name="グループ 9" transform="translate(33.027 31.3)">
      <path id="パス_24-2" data-name="パス 24" d="M145.582,114.888c0,1.438-2.3,2.517-3.38,3.021s-1.51.5-1.87,1.079a7.673,7.673,0,0,0-.863,3.524c0,.5-1.079,1.079-1.438,1.079-.287,0-.36-.144-.36-.431a10.392,10.392,0,0,1,2.014-4.891c-1.438.144-3.021.288-4.459.288h-.072c-6.113,11.866-13.736,24.092-21.719,24.092a11.985,11.985,0,0,1-4.459-.863c-2.8,4.963-6.688,7.911-9.781,7.911-1.151,0-1.726-.432-1.726-.719,0-.359.432-1.007.863-1.007a7.092,7.092,0,0,0,1.8.431c2.733,0,5.609-2.733,7.551-7.191-7.407-3.74-13.017-14.312-13.017-25.818,0-5.753,1.726-9.278,5.178-9.278,6.041,0,12.873,9.421,12.873,21.071a30.291,30.291,0,0,1-2.877,13.089,10.252,10.252,0,0,0,3.6.647c5.538,0,11.722-11.291,17.835-23.085-2.517-.719-5.106-1.726-6.9-1.726-3.38,0-4.675,1.87-4.675,3.74,0,.288-.072.5-.287.5-.647,0-1.151-.863-1.151-1.223,0-1.51,2.517-4.243,8.558-4.243a22.9,22.9,0,0,1,5.466.935c3.02-5.753,5.969-11.435,8.846-15.894,1.151-1.8,2.8-2.445,4.171-3.308h-.575c-7.7,0-15.678-5.609-22.582-5.609-3.093,0-6.113,1.51-6.113,5.754,0,5.178,5.61,12.873,10.5,12.873,2.8,0,3.668-2.086,3.668-4.387,0-4.387-3.524-6.76-3.524-7.264a1.16,1.16,0,0,1,.863-.935c.432,0,3.6,2.445,3.6,7.983,0,3.236-2.013,5.969-5.178,5.969-4.531,0-12.442-5.322-12.442-13.161,0-5.106,5.25-8.127,10.284-8.127,6.4,0,15.031,5.538,21.144,5.538,1.079,0,2.8-1.438,3.955-2.445a2.717,2.717,0,0,1,1.87-1.007c.935,0,1.367.432,1.367,1.151,0,.791-.144,1.582-5.322,4.027-2.086,1.007-5.825,10-10.788,19.777a17.68,17.68,0,0,0,4.243.575c1.438-1.941,3.164-3.524,4.243-3.524a1.059,1.059,0,0,1,1.079,1.079Zm-37.253,24.739a32.274,32.274,0,0,0,1.726-10.428c0-12.369-6.473-21.79-10.428-21.79-2.373,0-3.668,3.164-3.668,8.342,0,10.5,5.394,20.5,12.37,23.876Z" transform="translate(-94.665 -89.717)" fill="#fff"/>
      <path id="パス_25-2" data-name="パス 25" d="M253.354,173.988a.309.309,0,0,1,.287.287c0,.216-.072.36-.5.719-2.013,1.8-6.4,4.1-9.565,4.1h-.5c-1.942,2.158-4.243,3.74-6.113,3.74a4.193,4.193,0,0,1-4.387-4.027c0-5.25,7.12-13.233,12.729-13.233a2.744,2.744,0,0,1,2.948,2.732c0,2.661-1.654,6.257-3.883,9.278a1.81,1.81,0,0,0,.719.144c2.877,0,5.178-1.438,7.407-3.236.5-.359.647-.5.863-.5Zm-17.691,5.178c0,1.151.647,2.229,1.726,2.229s2.8-1.007,4.387-2.661c-.431-.216-.791-.5-.791-.791a2.942,2.942,0,0,1,1.8-1.654,1.1,1.1,0,0,1,.719.431,14.633,14.633,0,0,0,3.093-8.27c0-1.438-.5-2.013-1.223-2.013-3.452,0-9.708,8.343-9.708,12.729Z" transform="translate(-184.457 -139.108)" fill="#fff"/>
      <path id="パス_26-2" data-name="パス 26" d="M306.741,173.988a.309.309,0,0,1,.288.287c0,.216-.072.36-.5.719-2.013,1.8-6.4,4.1-9.565,4.1h-.5c-1.942,2.158-4.243,3.74-6.113,3.74a4.193,4.193,0,0,1-4.387-4.027c0-5.25,7.12-13.233,12.729-13.233a2.744,2.744,0,0,1,2.949,2.732c0,2.661-1.654,6.257-3.884,9.278a1.813,1.813,0,0,0,.719.144c2.877,0,5.178-1.438,7.407-3.236.5-.359.647-.5.863-.5Zm-17.691,5.178c0,1.151.647,2.229,1.726,2.229s2.8-1.007,4.387-2.661c-.432-.216-.791-.5-.791-.791a2.942,2.942,0,0,1,1.8-1.654,1.1,1.1,0,0,1,.719.431,14.633,14.633,0,0,0,3.093-8.27c0-1.438-.5-2.013-1.223-2.013-3.452,0-9.708,8.343-9.708,12.729Z" transform="translate(-219.218 -139.108)" fill="#fff"/>
      <path id="パス_27-2" data-name="パス 27" d="M341.251,144.367a3.147,3.147,0,0,1-2.733-3.164c0-4.531,7.551-12.514,11.866-12.514a3.232,3.232,0,0,1,2.8,1.582,26.823,26.823,0,0,1,.791-3.092c3.308-10.069,9.709-20.353,14.743-20.353a1.823,1.823,0,0,1,1.654,2.014c0,3.164-8.63,15.606-14.527,21.791a31.229,31.229,0,0,0-.5,5.825c0,2.086.791,4.531,2.086,4.531.935,0,3.02-1.007,7.767-4.746.5-.359.647-.5.863-.5a.309.309,0,0,1,.288.287c0,.216-.072.36-.5.719-5.25,4.243-8.127,5.538-9.493,5.538-2.733,0-3.6-3.452-3.6-6.976-3.668,3.668-8.127,9.062-11.507,9.062Zm11.723-12.729c-.216,0-.216.287-.647.287-.359,0-.288-.575-.288-.719,0-1.079-.432-1.367-1.294-1.367-4.1,0-9.35,8.486-9.35,12.657a.7.7,0,0,0,.719.791c2.086,0,11-9.205,11-11.291,0-.072,0-.36-.144-.36Zm3.452-2.589.216-.288Zm13.161-20.209c0-.575-.288-.863-.791-.863-3.308,0-11.65,17.979-11.65,19.849,2.013-2.086,12.441-15.965,12.441-18.986Z" transform="translate(-253.441 -100.858)" fill="#fff"/>
      <path id="パス_28-2" data-name="パス 28" d="M417.288,174.886c-1.151,4.171-4.243,8.2-7.7,8.2-1.8,0-3.668-1.294-3.668-2.877,0-1.942,4.1-3.236,8.63-4.89.575-2.877.863-6.185,1.151-8.918a69.677,69.677,0,0,1-5.9,5.034c-.36.287-.5.359-.647.359a.34.34,0,0,1-.359-.359c0-.144.144-.287.575-.647a61.666,61.666,0,0,0,6.473-5.466,5.576,5.576,0,0,1,.144-1.151,5.164,5.164,0,0,1,4.53-3.955c.432,0,.647.359.647.791,0,.719-2.086,3.02-3.38,4.387.072,1.726.072,4.1.072,5.9a12.5,12.5,0,0,1-.36,2.8A24.1,24.1,0,0,0,422.682,171c.5-.359.647-.5.863-.5a.309.309,0,0,1,.287.287c0,.216-.072.36-.5.719a25.747,25.747,0,0,1-6.041,3.38Zm-7.623,7.407c2.445,0,3.884-2.732,4.674-6.257-3.668,1.367-6.76,2.517-6.76,4.387a1.958,1.958,0,0,0,2.086,1.87Z" transform="translate(-297.33 -135.619)" fill="#fff"/>
    </g>
  </g>
</svg>
