<?xml version="1.0" encoding="UTF-8"?><svg id="_レイヤー_1" xmlns="http://www.w3.org/2000/svg" width="457.524" height="261.631" viewBox="0 0 457.524 261.631"><g><path d="M73.58,39.253c-.635,0-2.225-.795-5.244-.795-4.132,0-11.125,3.337-17.481,9.535,2.384,7.628,3.497,16.687,3.497,25.904,0,15.574-6.834,24.632-13.826,24.632-4.291,0-7.311-4.132-7.311-11.442,0-15.098,4.768-26.699,11.284-35.122-3.973-15.892-11.284-25.109-19.071-25.109-9.694,0-19.706,12.713-19.706,34.486,0,22.408,8.741,54.509,30.831,54.509,22.567,0,55.622-58.959,73.104-90.902,0-13.031,5.88-24.95,12.555-24.95,1.748,0,3.337,1.907,3.337,4.45,0,5.562-8.9,9.853-8.9,22.09s.318,23.202,.318,46.881v1.589c4.291-3.655,8.741-7.628,13.19-11.919,3.814-3.655,7.628-7.469,11.284-11.283,7.946-26.063,21.931-49.424,32.261-49.424,2.384,0,4.132,1.907,4.132,3.814,0,7.787-10.012,21.136-23.361,35.757-5.403,16.527-9.853,36.71-9.853,56.257,0,3.973,1.589,5.721,3.496,5.721,5.562,0,7.946-7.628,8.582-7.628s1.271,.794,1.271,1.271c0,1.907-6.039,9.694-11.76,9.694-5.085,0-10.966-4.768-10.966-18.117,0-10.012,1.748-21.137,4.768-32.261-3.496,3.655-7.31,7.151-10.807,10.647-4.291,4.132-8.582,7.946-12.555,11.601-1.589,16.369-10.33,34.645-21.295,34.645-3.497,0-5.88-3.02-5.88-6.039,0-8.264,8.105-16.21,18.753-25.427v-.477c0-6.675-.159-31.466,.635-45.769-19.07,34.486-47.835,83.274-75.169,83.274C12.237,119.349,0,91.538,0,65.952,0,37.028,14.78,23.679,25.904,23.679c11.919,0,19.865,9.058,24.314,22.09,7.152-6.516,15.256-9.853,20.978-9.853,3.497,0,5.245,.636,5.245,1.271s-2.225,2.066-2.861,2.066Zm-28.447,15.415c-5.403,7.628-9.376,17.64-9.376,29.877,0,8.264,2.384,11.125,5.085,11.125,4.45,0,6.674-6.993,6.674-17.004,0-9.059-.953-17.004-2.384-23.997Zm62.774,32.102c-8.9,8.105-14.938,14.461-14.938,20.023,0,1.748,1.112,3.179,2.86,3.179,4.609,0,10.647-11.601,12.078-23.202Zm48.789-51.172c10.647-12.237,18.117-22.885,18.117-29.083,0-.636-.477-1.112-1.112-1.112-3.02,0-10.489,12.396-17.004,30.195Z"/><path d="M201.034,72.15c.318,0,.636,.318,.636,.635,0,.477-.159,.795-1.112,1.589-4.45,3.973-14.144,9.059-21.137,9.059h-1.112c-4.291,4.768-9.376,8.264-13.508,8.264-4.926,0-9.694-3.496-9.694-8.899,0-11.601,15.733-29.241,28.129-29.241,3.814,0,6.516,2.542,6.516,6.039,0,5.88-3.655,13.826-8.582,20.5,.318,.159,.954,.318,1.589,.318,6.357,0,11.442-3.178,16.369-7.151,1.113-.794,1.431-1.112,1.907-1.112Zm-39.094,11.442c0,2.543,1.43,4.927,3.814,4.927s6.198-2.225,9.694-5.88c-.954-.477-1.749-1.113-1.749-1.749,0-.953,2.702-3.655,3.973-3.655,.636,0,1.112,.477,1.589,.953,3.814-5.244,6.833-11.76,6.833-18.276,0-3.178-1.112-4.45-2.702-4.45-7.628,0-21.454,18.435-21.454,28.129Z"/><path d="M242.193,72.15c.317,0,.635,.318,.635,.635,0,.477-.158,.795-1.112,1.589-11.601,9.376-20.023,16.369-27.811,16.369-3.973,0-8.741-1.43-8.741-7.151,0-8.582,13.826-15.733,13.826-17.64,0-.794-2.065-2.066-4.132-4.132-4.291,4.45-9.535,8.899-14.779,12.873-.795,.636-1.112,.794-1.43,.794-.477,0-.795-.318-.795-.794,0-.318,.318-.636,1.271-1.43,5.085-3.814,10.489-8.264,14.78-12.555-1.907-2.066-3.497-4.768-3.497-8.264,0-6.516,7.946-12.396,12.078-12.396,1.907,0,3.497,2.066,3.497,4.291,0,3.973-3.179,8.74-7.787,13.985,1.43,3.973,4.132,5.562,4.132,7.469,0,4.291-10.012,11.283-10.012,19.229,0,2.384,1.43,3.496,3.655,3.496,5.245,0,13.826-6.993,24.315-15.256,1.112-.794,1.43-1.112,1.907-1.112Zm-24.315-15.892c3.496-4.132,5.722-8.105,5.722-11.125,0-1.589-.478-2.543-2.066-2.543-1.748,0-3.973,2.702-3.973,10.489,0,1.271,.158,2.225,.317,3.179Z"/><path d="M283.351,72.15c.317,0,.636,.318,.636,.635,0,.477-.159,.795-1.112,1.589-4.45,3.973-14.145,9.059-21.137,9.059h-1.112c-4.291,4.768-9.376,8.264-13.508,8.264-4.927,0-9.694-3.496-9.694-8.899,0-11.601,15.732-29.241,28.129-29.241,3.813,0,6.516,2.542,6.516,6.039,0,5.88-3.655,13.826-8.582,20.5,.318,.159,.954,.318,1.59,.318,6.356,0,11.441-3.178,16.368-7.151,1.112-.794,1.431-1.112,1.907-1.112Zm-39.095,11.442c0,2.543,1.431,4.927,3.814,4.927s6.198-2.225,9.694-5.88c-.954-.477-1.748-1.113-1.748-1.749,0-.953,2.701-3.655,3.973-3.655,.636,0,1.112,.477,1.589,.953,3.814-5.244,6.834-11.76,6.834-18.276,0-3.178-1.112-4.45-2.701-4.45-7.629,0-21.455,18.435-21.455,28.129Z"/><path d="M315.61,73.262c1.112-.794,1.43-1.112,1.907-1.112,.317,0,.636,.318,.636,.635,0,.477-.159,.795-1.113,1.589-10.488,8.105-26.38,14.462-31.307,14.462-3.655,0-6.834-2.702-6.834-7.151,0-13.032,17.958-28.288,25.109-28.288,2.384,0,4.132,2.066,4.132,3.337,0,2.702-2.384,6.675-3.813,6.675-.795,0-1.431-.954-1.431-1.43,0-1.113,3.496-2.384,3.496-5.085,0-.636-.477-1.589-1.589-1.589-6.675,0-18.911,17.481-18.911,27.017,0,2.225,.794,3.655,2.86,3.655,2.225,0,16.368-4.45,26.857-12.713Z"/><path d="M349.777,73.262c1.112-.794,1.431-1.112,1.907-1.112,.317,0,.636,.318,.636,.635,0,.477-.159,.795-1.112,1.589-10.489,8.105-26.381,14.462-31.308,14.462-3.655,0-6.834-2.702-6.834-7.151,0-13.032,17.958-28.288,25.109-28.288,2.384,0,4.132,2.066,4.132,3.337,0,2.702-2.384,6.675-3.813,6.675-.795,0-1.431-.954-1.431-1.43,0-1.113,3.496-2.384,3.496-5.085,0-.636-.477-1.589-1.589-1.589-6.675,0-18.911,17.481-18.911,27.017,0,2.225,.794,3.655,2.86,3.655,2.225,0,16.368-4.45,26.857-12.713Z"/><path d="M399.359,73.262c1.112-.794,1.431-1.112,1.907-1.112,.317,0,.636,.318,.636,.635,0,.477-.159,.795-1.112,1.589-11.602,9.376-16.369,10.648-20.818,10.648-8.423,0-7.47-9.536-9.854-9.536s-12.714,14.303-21.613,14.303c-2.384,0-4.927-1.907-4.927-3.973,0-12.873,20.501-31.625,32.103-31.625,2.701,0,4.926,2.702,4.926,5.562,0,1.589-2.225,5.403-3.337,5.403-.477,0-1.112-.636-1.112-1.271,0-1.112,2.701-2.066,2.701-4.926,0-1.271-1.271-2.384-3.02-2.384-7.469,0-25.586,18.117-25.586,28.447,0,1.112,.636,1.748,1.59,1.748,3.178,0,10.806-7.311,15.256-12.078,4.132-4.45,5.244-6.357,7.628-6.357,5.403,0,3.496,13.35,9.854,13.35,2.543,0,4.291-.159,14.779-8.423Z"/><path d="M435.592,56.099c1.907,0,4.609,2.066,4.609,3.655,0,6.198-10.013,14.78-10.013,25.427,0,1.748,.636,2.86,2.066,2.86,3.02,0,12.237-6.674,22.726-14.938,1.112-.794,1.431-1.112,1.907-1.112,.317,0,.636,.318,.636,.636,0,.477-.159,.794-1.112,1.589-11.602,9.376-21.613,16.369-27.812,16.369-2.384,0-6.198-1.271-6.198-6.357,0-11.601,12.237-20.024,12.237-24.95,0-.318-.317-.636-.636-.636-5.721,0-32.102,26.698-37.505,26.698-.795,0-2.225-2.066-2.225-3.178,0-2.86,7.945-18.435,16.051-27.175,3.337-3.655,7.628-6.039,10.012-6.039,.317,0,.795,.636,.795,.954,0,.159-2.384,2.066-5.562,6.675-3.179,4.768-9.376,17.64-10.489,20.977,2.543-1.907,24.315-21.454,30.513-21.454Z"/></g><g><path d="M240.606,161.863c0,4.123-6.597,7.215-9.689,8.658-3.091,1.442-4.328,1.442-5.359,3.092-.824,1.03-2.474,5.771-2.474,10.1,0,1.443-3.092,3.092-4.123,3.092-.824,0-1.031-.412-1.031-1.236,0-3.711,2.474-9.07,5.772-14.018-4.123,.413-8.658,.825-12.78,.825h-.206c-17.521,34.012-39.371,69.054-62.251,69.054-4.329,0-8.658-.824-12.78-2.474-8.039,14.224-19.17,22.675-28.034,22.675-3.298,0-4.947-1.237-4.947-2.062,0-1.03,1.237-2.886,2.474-2.886,.825,0,2.474,1.236,5.153,1.236,7.833,0,16.078-7.833,21.644-20.612-21.231-10.72-37.31-41.021-37.31-74.001,0-16.49,4.947-26.592,14.841-26.592,17.315,0,36.897,27.004,36.897,60.396,0,14.43-3.298,27.209-8.245,37.516,3.298,1.237,6.802,1.855,10.307,1.855,15.872,0,33.599-32.362,51.121-66.168-7.215-2.061-14.636-4.947-19.789-4.947-9.688,0-13.399,5.359-13.399,10.719,0,.825-.206,1.443-.824,1.443-1.855,0-3.298-2.474-3.298-3.504,0-4.329,7.215-12.162,24.53-12.162,4.741,0,10.101,1.236,15.666,2.68,8.657-16.49,17.109-32.775,25.354-45.555,3.298-5.153,8.039-7.009,11.956-9.482h-1.649c-22.056,0-44.936-16.078-64.725-16.078-8.864,0-17.521,4.329-17.521,16.491,0,14.841,16.079,36.898,30.095,36.898,8.039,0,10.513-5.979,10.513-12.574,0-12.574-10.1-19.377-10.1-20.82,0-1.237,1.649-2.68,2.473-2.68,1.237,0,10.307,7.009,10.307,22.881,0,9.276-5.771,17.109-14.841,17.109-12.986,0-35.661-15.254-35.661-37.722,0-14.635,15.047-23.293,29.477-23.293,18.346,0,43.082,15.872,60.603,15.872,3.092,0,8.039-4.123,11.337-7.008,1.649-1.649,3.298-2.886,5.359-2.886,2.68,0,3.917,1.237,3.917,3.298,0,2.268-.412,4.535-15.254,11.543-5.979,2.886-16.697,28.653-30.92,56.686,4.123,1.031,8.245,1.648,12.162,1.648,4.123-5.564,9.07-10.1,12.162-10.1,1.649,0,3.093,1.236,3.093,3.092Zm-106.776,70.909c2.886-8.452,4.947-18.552,4.947-29.89,0-35.454-18.552-62.457-29.889-62.457-6.802,0-10.513,9.07-10.513,23.911,0,30.095,15.46,58.747,35.455,68.436Z"/><path d="M292.141,189.691c.412,0,.824,.412,.824,.824,0,.618-.206,1.031-1.442,2.061-5.771,5.154-18.346,11.75-27.415,11.75h-1.443c-5.565,6.184-12.162,10.719-17.521,10.719-6.39,0-12.574-4.535-12.574-11.543,0-15.048,20.408-37.928,36.486-37.928,4.947,0,8.451,3.297,8.451,7.832,0,7.627-4.741,17.934-11.131,26.592,.412,.205,1.236,.412,2.061,.412,8.246,0,14.842-4.123,21.231-9.276,1.443-1.03,1.855-1.442,2.474-1.442Zm-50.708,14.841c0,3.298,1.854,6.39,4.947,6.39s8.039-2.885,12.573-7.626c-1.236-.618-2.268-1.443-2.268-2.268,0-1.237,3.505-4.741,5.154-4.741,.824,0,1.442,.619,2.061,1.236,4.947-6.802,8.864-15.253,8.864-23.705,0-4.122-1.442-5.771-3.505-5.771-9.894,0-27.827,23.912-27.827,36.485Z"/><path d="M345.528,189.691c.412,0,.824,.412,.824,.824,0,.618-.206,1.031-1.442,2.061-5.771,5.154-18.346,11.75-27.415,11.75h-1.443c-5.565,6.184-12.162,10.719-17.521,10.719-6.39,0-12.574-4.535-12.574-11.543,0-15.048,20.407-37.928,36.485-37.928,4.947,0,8.452,3.297,8.452,7.832,0,7.627-4.741,17.934-11.132,26.592,.413,.205,1.237,.412,2.062,.412,8.245,0,14.842-4.123,21.231-9.276,1.443-1.03,1.855-1.442,2.474-1.442Zm-50.708,14.841c0,3.298,1.855,6.39,4.947,6.39s8.039-2.885,12.574-7.626c-1.237-.618-2.268-1.443-2.268-2.268,0-1.237,3.504-4.741,5.153-4.741,.824,0,1.442,.619,2.061,1.236,4.947-6.802,8.864-15.253,8.864-23.705,0-4.122-1.443-5.771-3.505-5.771-9.894,0-27.827,23.912-27.827,36.485Z"/><path d="M346.351,214.427c-3.504,0-7.833-3.917-7.833-9.069,0-12.986,21.644-35.867,34.012-35.867,4.947,0,7.215,3.298,8.039,4.535,0,0,1.031-5.359,2.268-8.863,9.482-28.859,27.828-58.336,42.257-58.336,2.68,0,4.741,2.474,4.741,5.772,0,9.07-24.735,44.73-41.639,62.458-1.236,5.565-1.442,13.398-1.442,16.696,0,5.979,2.267,12.986,5.978,12.986,2.68,0,8.657-2.886,22.262-13.604,1.443-1.03,1.855-1.442,2.474-1.442,.412,0,.825,.412,.825,.824,0,.618-.207,1.031-1.443,2.061-15.048,12.162-23.293,15.873-27.209,15.873-7.833,0-10.307-9.895-10.307-19.995-10.513,10.513-23.293,25.973-32.981,25.973Zm33.6-36.485c-.618,0-.618,.824-1.855,.824-1.03,0-.824-1.648-.824-2.061,0-3.092-1.237-3.917-3.71-3.917-11.75,0-26.798,24.323-26.798,36.279,0,1.442,.825,2.268,2.062,2.268,5.978,0,31.538-26.385,31.538-32.362,0-.207,0-1.031-.412-1.031Zm9.895-7.42l.618-.825-.618,.825Zm37.722-57.923c0-1.649-.824-2.474-2.268-2.474-9.481,0-33.393,51.533-33.393,56.892,5.771-5.978,35.66-45.761,35.66-54.418Z"/><path d="M438.494,202.266c-3.298,11.955-12.162,23.498-22.056,23.498-5.153,0-10.513-3.71-10.513-8.245,0-5.565,11.749-9.276,24.735-14.017,1.649-8.246,2.474-17.728,3.298-25.561-4.947,4.947-10.925,9.688-16.902,14.43-1.031,.824-1.443,1.03-1.855,1.03-.618,0-1.03-.412-1.03-1.03,0-.412,.412-.824,1.648-1.855,6.597-4.947,13.192-10.307,18.552-15.666,0-1.236,.206-2.268,.413-3.299,.824-6.184,8.039-11.336,12.985-11.336,1.237,0,1.855,1.03,1.855,2.268,0,2.061-5.978,8.656-9.688,12.573,.207,4.947,.207,11.749,.207,16.903,0,2.68-.413,5.359-1.031,8.039,5.565-2.475,10.719-5.566,14.842-8.864,1.442-1.03,1.854-1.442,2.474-1.442,.412,0,.824,.412,.824,.824,0,.618-.206,1.031-1.443,2.061-4.946,3.917-10.925,7.01-17.314,9.689Zm-21.85,21.23c7.008,0,11.131-7.832,13.398-17.934-10.513,3.917-19.377,7.215-19.377,12.574,0,3.092,2.68,5.359,5.979,5.359Z"/></g></svg>